<svg width="32" height="32" viewBox="0 0 32 32" fill="none" xmlns="http://www.w3.org/2000/svg">
  <!-- Background circle with gradient -->
  <circle cx="16" cy="16" r="15" fill="url(#gradient)" stroke="url(#strokeGradient)" stroke-width="2"/>
  
  <!-- Letter G with modern styling -->
  <path d="M11 9C9.34315 9 8 10.3431 8 12V20C8 21.6569 9.34315 23 11 23H21C22.6569 23 24 21.6569 24 20V17.5H19V19.5C19 20.0523 18.5523 20.5 18 20.5H11C10.4477 20.5 10 20.0523 10 19.5V12.5C10 11.9477 10.4477 11.5 11 11.5H18C18.5523 11.5 19 11.9477 19 12.5V14.5H24V12C24 10.3431 22.6569 9 21 9H11Z" fill="white"/>
  
  <!-- Accent dot for modern touch -->
  <circle cx="21" cy="16" r="1.5" fill="white" opacity="0.9"/>
  
  <!-- Gradient definitions -->
  <defs>
    <linearGradient id="gradient" x1="0%" y1="0%" x2="100%" y2="100%">
      <stop offset="0%" style="stop-color:#0d9488;stop-opacity:1" />
      <stop offset="50%" style="stop-color:#0891b2;stop-opacity:1" />
      <stop offset="100%" style="stop-color:#059669;stop-opacity:1" />
    </linearGradient>
    <linearGradient id="strokeGradient" x1="0%" y1="0%" x2="100%" y2="100%">
      <stop offset="0%" style="stop-color:#065f46;stop-opacity:1" />
      <stop offset="100%" style="stop-color:#0c4a6e;stop-opacity:1" />
    </linearGradient>
  </defs>
</svg>